<svg width="1200" height="900" viewBox="0 0 1200 900" fill="none" xmlns="http://www.w3.org/2000/svg">
  <defs>
    <linearGradient id="bg2" x1="0" y1="0" x2="1200" y2="900" gradientUnits="userSpaceOnUse">
      <stop stop-color="#0A2540" stop-opacity="0.08"/>
      <stop offset="0.45" stop-color="#3A86FF" stop-opacity="0.12"/>
      <stop offset="1" stop-color="#22C55E" stop-opacity="0.10"/>
    </linearGradient>
    <linearGradient id="lineA" x1="180" y1="630" x2="1020" y2="320" gradientUnits="userSpaceOnUse">
      <stop stop-color="#3A86FF"/>
      <stop offset="1" stop-color="#22C55E"/>
    </linearGradient>
    <filter id="shadow2" x="-40" y="-40" width="1280" height="980" filterUnits="userSpaceOnUse" color-interpolation-filters="sRGB">
      <feDropShadow dx="0" dy="18" stdDeviation="20" flood-color="#0A2540" flood-opacity="0.10"/>
    </filter>
  </defs>

  <rect x="0" y="0" width="1200" height="900" rx="48" fill="url(#bg2)"/>

  <g filter="url(#shadow2)">
    <rect x="120" y="150" width="960" height="600" rx="28" fill="white"/>
    <rect x="120" y="150" width="960" height="78" rx="28" fill="#F8F9FB"/>
    <rect x="160" y="176" width="210" height="26" rx="13" fill="#E5E7EB"/>
    <rect x="388" y="176" width="140" height="26" rx="13" fill="#E5E7EB"/>
    <rect x="960" y="176" width="80" height="26" rx="13" fill="#E5E7EB"/>

    <!-- Chart area -->
    <rect x="170" y="260" width="860" height="430" rx="22" fill="#FFFFFF" stroke="#E5E7EB"/>

    <!-- Grid -->
    <g opacity="0.6" stroke="#E5E7EB">
      <line x1="220" y1="312" x2="980" y2="312"/>
      <line x1="220" y1="372" x2="980" y2="372"/>
      <line x1="220" y1="432" x2="980" y2="432"/>
      <line x1="220" y1="492" x2="980" y2="492"/>
      <line x1="220" y1="552" x2="980" y2="552"/>
      <line x1="260" y1="300" x2="260" y2="650"/>
      <line x1="380" y1="300" x2="380" y2="650"/>
      <line x1="500" y1="300" x2="500" y2="650"/>
      <line x1="620" y1="300" x2="620" y2="650"/>
      <line x1="740" y1="300" x2="740" y2="650"/>
      <line x1="860" y1="300" x2="860" y2="650"/>
    </g>

    <!-- Line -->
    <path d="M220 602 C 300 540, 340 560, 380 510 C 430 448, 480 480, 500 432 C 550 318, 630 430, 700 372 C 780 306, 840 420, 980 320"
          stroke="url(#lineA)" stroke-width="10" stroke-linecap="round" stroke-linejoin="round"/>

    <!-- Points -->
    <g>
      <circle cx="220" cy="602" r="10" fill="#3A86FF"/>
      <circle cx="380" cy="510" r="10" fill="#3A86FF"/>
      <circle cx="500" cy="432" r="10" fill="#3A86FF"/>
      <circle cx="700" cy="372" r="10" fill="#22C55E"/>
      <circle cx="980" cy="320" r="10" fill="#22C55E"/>
    </g>

    <!-- Tooltip mock -->
    <rect x="720" y="320" width="210" height="92" rx="16" fill="#0A2540" fill-opacity="0.92"/>
    <rect x="740" y="344" width="110" height="12" rx="6" fill="#E2E8F0" fill-opacity="0.95"/>
    <rect x="740" y="366" width="150" height="12" rx="6" fill="#E2E8F0" fill-opacity="0.75"/>
    <rect x="740" y="388" width="90" height="12" rx="6" fill="#E2E8F0" fill-opacity="0.65"/>

    <!-- Bottom chips -->
    <rect x="170" y="710" width="250" height="40" rx="20" fill="#F8F9FB" stroke="#E5E7EB"/>
    <rect x="436" y="710" width="250" height="40" rx="20" fill="#F8F9FB" stroke="#E5E7EB"/>
    <rect x="702" y="710" width="328" height="40" rx="20" fill="#F8F9FB" stroke="#E5E7EB"/>
  </g>
</svg>
